<mxfile host="65bd71144e">
    <diagram id="sampleFlow" name="Flow Chart">
        <mxGraphModel dx="2274" dy="1166" grid="0" gridSize="10" guides="1" tooltips="1" connect="1" arrows="1" fold="1" page="0" pageScale="1" pageWidth="850" pageHeight="1100" math="0" shadow="0">
            <root>
                <mxCell id="0"/>
                <mxCell id="1" parent="0"/>
                <mxCell id="start" value="&lt;b&gt;Start&lt;/b&gt;" style="ellipse;whiteSpace=wrap;html=1;fillColor=#60a917;fontColor=#ffffff;strokeColor=#2D7600;" parent="1" vertex="1">
                    <mxGeometry x="300" y="40" width="120" height="60" as="geometry"/>
                </mxCell>
                <mxCell id="raw_data_blob" value="&lt;b&gt;Raw Data from Blob&lt;/b&gt;" style="parallelogram;whiteSpace=wrap;html=1;fillColor=#1ba1e2;fontColor=#ffffff;strokeColor=#006EAF;" parent="1" vertex="1">
                    <mxGeometry x="270" y="150" width="180" height="60" as="geometry"/>
                </mxCell>
                <mxCell id="df_load" value="&lt;b&gt;Load into DF&lt;/b&gt;" style="rectangle;whiteSpace=wrap;html=1;fillColor=#B4CF7A;strokeColor=#36393d;" parent="1" vertex="1">
                    <mxGeometry x="270" y="250" width="180" height="60" as="geometry"/>
                </mxCell>
                <mxCell id="clean_drop" value="&lt;b&gt;Clean and Drop Columns&lt;/b&gt;" style="rectangle;whiteSpace=wrap;html=1;fillColor=#647687;strokeColor=#314354;fontColor=#ffffff;" parent="1" vertex="1">
                    <mxGeometry x="270" y="350" width="180" height="60" as="geometry"/>
                </mxCell>
                <mxCell id="standardised_data" value="&lt;b&gt;Standardised Data&lt;/b&gt;" style="rectangle;whiteSpace=wrap;html=1;fillColor=#647687;strokeColor=#314354;fontColor=#ffffff;" parent="1" vertex="1">
                    <mxGeometry x="270" y="450" width="180" height="60" as="geometry"/>
                </mxCell>
                <mxCell id="df_again" value="&lt;b&gt;DF&lt;/b&gt;" style="rectangle;whiteSpace=wrap;html=1;fillColor=#647687;strokeColor=#314354;fontColor=#ffffff;" parent="1" vertex="1">
                    <mxGeometry x="270" y="550" width="180" height="60" as="geometry"/>
                </mxCell>
                <mxCell id="read_consolidate_sources" value="&lt;b&gt;Read &amp;amp; Consolidate Each Source&lt;br&gt;Using Exact ET, D, Date&lt;br&gt;&lt;/b&gt;" style="rectangle;whiteSpace=wrap;html=1;fillColor=#ffcd28;strokeColor=#d79b00;" parent="1" vertex="1">
                    <mxGeometry x="250" y="650" width="220" height="60" as="geometry"/>
                </mxCell>
                <mxCell id="df_copy" value="&lt;b&gt;DF Copy&lt;/b&gt;" style="rectangle;whiteSpace=wrap;html=1;fillColor=#ffcd28;strokeColor=#d79b00;" parent="1" vertex="1">
                    <mxGeometry x="270" y="750" width="180" height="60" as="geometry"/>
                </mxCell>
                <mxCell id="consolidate_unified" value="&lt;b&gt;Consolidate All to One Unified&lt;br&gt;Using ET, C, +-7 Date&lt;br&gt;&lt;/b&gt;" style="rectangle;whiteSpace=wrap;html=1;fillColor=#ffcd28;strokeColor=#d79b00;" parent="1" vertex="1">
                    <mxGeometry x="250" y="850" width="220" height="60" as="geometry"/>
                </mxCell>
                <mxCell id="upload_blob" value="&lt;b&gt;Upload to Blob (data_mid &amp; data_out)&lt;/b&gt;" style="parallelogram;whiteSpace=wrap;html=1;fillColor=#1ba1e2;fontColor=#ffffff;strokeColor=#006EAF;" parent="1" vertex="1">
                    <mxGeometry x="230" y="950" width="260" height="60" as="geometry"/>
                </mxCell>
                <mxCell id="end" value="&lt;b&gt;End&lt;/b&gt;" style="ellipse;whiteSpace=wrap;html=1;fillColor=#60a917;fontColor=#ffffff;strokeColor=#2D7600;" parent="1" vertex="1">
                    <mxGeometry x="310" y="1050" width="100" height="60" as="geometry"/>
                </mxCell>
                <mxCell id="edge_start_raw" parent="1" source="start" target="raw_data_blob" edge="1">
                    <mxGeometry relative="1" as="geometry"/>
                </mxCell>
                <mxCell id="edge_raw_df" parent="1" source="raw_data_blob" target="df_load" edge="1">
                    <mxGeometry relative="1" as="geometry"/>
                </mxCell>
                <mxCell id="edge_df_clean" parent="1" source="df_load" target="clean_drop" edge="1">
                    <mxGeometry relative="1" as="geometry"/>
                </mxCell>
                <mxCell id="edge_clean_standardised" parent="1" source="clean_drop" target="standardised_data" edge="1">
                    <mxGeometry relative="1" as="geometry"/>
                </mxCell>
                <mxCell id="edge_standardised_df" parent="1" source="standardised_data" target="df_again" edge="1">
                    <mxGeometry relative="1" as="geometry"/>
                </mxCell>
                <mxCell id="edge_df_read_consolidate" parent="1" source="df_again" target="read_consolidate_sources" edge="1">
                    <mxGeometry relative="1" as="geometry"/>
                </mxCell>
                <mxCell id="edge_read_df_copy" parent="1" source="read_consolidate_sources" target="df_copy" edge="1">
                    <mxGeometry relative="1" as="geometry"/>
                </mxCell>
                <mxCell id="edge_df_copy_unified" parent="1" source="df_copy" target="consolidate_unified" edge="1">
                    <mxGeometry relative="1" as="geometry"/>
                </mxCell>
                <mxCell id="edge_unified_upload" parent="1" source="consolidate_unified" target="upload_blob" edge="1">
                    <mxGeometry relative="1" as="geometry"/>
                </mxCell>
                <mxCell id="edge_upload_end" parent="1" source="upload_blob" target="end" edge="1">
                    <mxGeometry relative="1" as="geometry"/>
                </mxCell>
            </root>
        </mxGraphModel>
    </diagram>
</mxfile>